<svg xmlns="http://www.w3.org/2000/svg" width="40" height="40" viewBox="0 0 40 40" fill="none">
<path
d="M20.5596 6C25.2639 6 27.6163 6.00053 29.4131 6.91602C30.9937 7.72135 32.2787 9.00634 33.084 10.5869C33.9995 12.3837 34 14.7362 34 19.4404V20.5596C34 25.2639 33.9995 27.6163 33.084 29.4131C32.2787 30.9937 30.9937 32.2787 29.4131 33.084C27.6163 33.9995 25.2639 34 20.5596 34H19.4404C14.7362 34 12.3837 33.9995 10.5869 33.084C9.00634 32.2787 7.72135 30.9937 6.91602 29.4131C6.00053 27.6163 6 25.2639 6 20.5596V19.4404C6 14.7361 6.00055 12.3837 6.91602 10.5869C7.72135 9.00634 9.00634 7.72135 10.5869 6.91602C12.3837 6.00055 14.7361 6 19.4404 6H20.5596ZM19.4404 8.7998C17.0422 8.7998 15.4116 8.80235 14.1514 8.90527C12.9237 9.00557 12.2953 9.18702 11.8574 9.41016C10.8038 9.94705 9.94705 10.8038 9.41016 11.8574C9.18702 12.2953 9.00557 12.9237 8.90527 14.1514C8.80235 15.4116 8.7998 17.0422 8.7998 19.4404V20.5596C8.7998 22.9578 8.80235 24.5884 8.90527 25.8486C9.00557 27.0763 9.18702 27.7047 9.41016 28.1426C9.94705 29.1962 10.8038 30.053 11.8574 30.5898C12.2953 30.813 12.9237 30.9945 14.1514 31.0947C15.4116 31.1976 17.0422 31.2002 19.4404 31.2002H20.5596C22.9578 31.2002 24.5884 31.1976 25.8486 31.0947C27.0763 30.9945 27.7047 30.813 28.1426 30.5898C29.1962 30.0529 30.0529 29.1962 30.5898 28.1426C30.813 27.7047 30.9945 27.0763 31.0947 25.8486C31.1976 24.5884 31.2002 22.9578 31.2002 20.5596V19.4404C31.2002 17.0422 31.1976 15.4116 31.0947 14.1514C30.9945 12.9237 30.813 12.2953 30.5898 11.8574C30.053 10.8038 29.1962 9.94705 28.1426 9.41016C27.7047 9.18702 27.0763 9.00557 25.8486 8.90527C24.5884 8.80235 22.9578 8.7998 20.5596 8.7998H19.4404ZM20 13C23.866 13 27 16.134 27 20C27 23.866 23.866 27 20 27C16.134 27 13 23.866 13 20C13 16.134 16.134 13 20 13ZM20 15.7998C17.6803 15.7998 15.7998 17.6803 15.7998 20C15.7998 22.3197 17.6803 24.2002 20 24.2002C22.3197 24.2002 24.2002 22.3197 24.2002 20C24.2002 17.6803 22.3197 15.7998 20 15.7998ZM27.7002 10.2002C28.8598 10.2003 29.7997 11.1401 29.7998 12.2998C29.7998 13.4595 28.8599 14.4003 27.7002 14.4004C26.5404 14.4004 25.5996 13.4596 25.5996 12.2998C25.5997 11.1401 26.5405 10.2002 27.7002 10.2002Z"
fill="currentColor" />
</svg>
