<svg width="40" height="40" viewBox="0 0 40 40" fill="none" xmlns="http://www.w3.org/2000/svg">
<path d="M6.66667 6.80011C6.48986 6.80013 6.3203 6.86967 6.19528 6.99344C6.07026 7.11721 6.00002 7.28507 6 7.46011V32.54C6.00002 32.715 6.07026 32.8829 6.19528 33.0067C6.3203 33.1304 6.48986 33.2 6.66667 33.2H8.66667C8.75501 33.2012 8.84272 33.1851 8.9247 33.1525C9.00667 33.1198 9.08129 33.0714 9.1442 33.01C9.20711 32.9486 9.25707 32.8754 9.29117 32.7947C9.32527 32.714 9.34283 32.6275 9.34283 32.54C9.34283 32.4525 9.32527 32.3659 9.29117 32.2852C9.25707 32.2045 9.20711 32.1314 9.1442 32.07C9.08129 32.0086 9.00667 31.9601 8.9247 31.9275C8.84272 31.8949 8.75501 31.8788 8.66667 31.88H7.33333V8.12011H8.66667C8.75501 8.12135 8.84272 8.10519 8.9247 8.07257C9.00667 8.03996 9.08129 7.99154 9.1442 7.93013C9.20711 7.86873 9.25707 7.79555 9.29117 7.71486C9.32527 7.63417 9.34283 7.54758 9.34283 7.46011C9.34283 7.37265 9.32527 7.28605 9.29117 7.20536C9.25707 7.12467 9.20711 7.0515 9.1442 6.99009C9.08129 6.92868 9.00667 6.88026 8.9247 6.84765C8.84272 6.81504 8.75501 6.79888 8.66667 6.80011H6.66667ZM31.3333 6.80011C31.245 6.79888 31.1573 6.81504 31.0753 6.84765C30.9933 6.88026 30.9187 6.92868 30.8558 6.99009C30.7929 7.0515 30.7429 7.12467 30.7088 7.20536C30.6747 7.28605 30.6572 7.37265 30.6572 7.46011C30.6572 7.54758 30.6747 7.63417 30.7088 7.71486C30.7429 7.79555 30.7929 7.86873 30.8558 7.93013C30.9187 7.99154 30.9933 8.03996 31.0753 8.07257C31.1573 8.10519 31.245 8.12135 31.3333 8.12011H32.6667V31.88H31.3333C31.245 31.8788 31.1573 31.8949 31.0753 31.9275C30.9933 31.9601 30.9187 32.0086 30.8558 32.07C30.7929 32.1314 30.7429 32.2045 30.7088 32.2852C30.6747 32.3659 30.6572 32.4525 30.6572 32.54C30.6572 32.6275 30.6747 32.714 30.7088 32.7947C30.7429 32.8754 30.7929 32.9486 30.8558 33.01C30.9187 33.0714 30.9933 33.1198 31.0753 33.1525C31.1573 33.1851 31.245 33.2012 31.3333 33.2H33.3333C33.5101 33.2 33.6797 33.1304 33.8047 33.0067C33.9297 32.8829 34 32.715 34 32.54V7.46011C34 7.28507 33.9297 7.11721 33.8047 6.99344C33.6797 6.86967 33.5101 6.80013 33.3333 6.80011H31.3333ZM24.0599 14.3952C23.205 14.3764 22.3366 14.5861 21.6068 15.0836C21.3695 15.2457 21.202 15.414 21.0091 15.585C20.7144 15.2509 20.3861 14.9672 20.0104 14.7948C19.409 14.519 18.7597 14.4344 18.1133 14.4236C17.3897 14.4113 16.7479 14.6163 16.2161 14.9598C16.1229 15.0201 16.0589 15.1235 15.9714 15.1906C15.9302 15.0547 15.8459 14.9355 15.731 14.8508C15.6161 14.766 15.4766 14.7202 15.3333 14.7201H12.6667C12.4899 14.7201 12.3203 14.7896 12.1953 14.9134C12.0703 15.0372 12 15.205 12 15.3801V24.62C12 24.7951 12.0703 24.9629 12.1953 25.0867C12.3203 25.2105 12.4899 25.28 12.6667 25.28H15.3333C15.421 25.28 15.5078 25.2629 15.5887 25.2296C15.6697 25.1964 15.7433 25.1477 15.8052 25.0862C15.8671 25.0248 15.9162 24.9519 15.9496 24.8717C15.983 24.7915 16.0002 24.7055 16 24.6187C16 24.6187 15.9933 22.056 16 20.3442C16.0013 20.0555 16.0151 19.7881 16.0625 19.5631C16.196 18.93 16.5997 18.6257 17.2513 18.6775C17.5899 18.7045 17.7067 18.7772 17.7956 18.8824C17.8844 18.9876 17.9814 19.2163 18 19.6636C17.9972 19.5926 18.0023 20.0186 18.0026 20.4938C18.0029 20.9689 18.0031 21.5854 18.0026 22.1966C18.0017 23.419 18 24.6187 18 24.6187C17.9998 24.7055 18.017 24.7915 18.0504 24.8717C18.0838 24.9519 18.1329 25.0248 18.1948 25.0862C18.2567 25.1477 18.3303 25.1964 18.4113 25.2296C18.4922 25.2629 18.579 25.28 18.6667 25.28H21.3333C21.5101 25.28 21.6797 25.2105 21.8047 25.0867C21.9297 24.9629 22 24.7951 22 24.62V20.3855C22.0036 20.0319 22.0415 19.6758 22.1224 19.3555C22.1963 19.0639 22.319 18.9124 22.4896 18.8064C22.6602 18.7003 22.9111 18.6367 23.2721 18.6762H23.2734C23.5877 18.7105 23.7177 18.7863 23.8047 18.8811C23.8911 18.9754 23.9747 19.1522 24 19.5089V24.62C24 24.7951 24.0703 24.9629 24.1953 25.0867C24.3203 25.2105 24.4899 25.28 24.6667 25.28H27.3333C27.5101 25.28 27.6797 25.2105 27.8047 25.0867C27.9297 24.9629 28 24.7951 28 24.62V18.0201C28 17.3123 27.7758 16.7604 27.5586 16.3275C27.0493 15.3118 26.0095 14.7077 24.9049 14.488C24.6288 14.4331 24.3449 14.4015 24.0599 14.3952ZM24.0378 15.7178C24.2411 15.7213 24.445 15.7428 24.6432 15.7823C25.4361 15.9399 26.0925 16.3728 26.3646 16.9153C26.5514 17.2877 26.6667 17.5663 26.6667 18.0201V23.96H25.3333V19.4677C25.3334 19.453 25.333 19.4384 25.332 19.4238C25.2947 18.8776 25.1395 18.3736 24.7917 17.9943C24.4438 17.6149 23.945 17.4214 23.4193 17.3639C22.8276 17.2992 22.2531 17.3942 21.7813 17.6875C21.3094 17.9807 20.9729 18.4681 20.8294 19.0345V19.0358C20.717 19.4811 20.6711 19.9342 20.6667 20.3713C20.6667 20.3734 20.6667 20.3756 20.6667 20.3777V23.96H19.3346C19.3352 23.5476 19.3352 23.0872 19.3359 22.1979C19.3364 21.5864 19.3363 20.9689 19.3359 20.4925C19.3356 20.0161 19.3398 19.7739 19.3333 19.6108V19.6095C19.308 18.9995 19.1745 18.4565 18.819 18.0355C18.4635 17.6145 17.9221 17.4076 17.3594 17.3626H17.3581C16.1177 17.264 15.011 18.0919 14.7578 19.2924V19.2936C14.6798 19.664 14.6681 20.018 14.6667 20.3391C14.661 21.7936 14.6653 23.3596 14.6667 23.96H13.3333V16.0401H14.6667V16.7001C14.6667 16.8356 14.709 16.9678 14.7876 17.0788C14.8663 17.1897 14.9775 17.274 15.1062 17.3202C15.2349 17.3664 15.3749 17.3722 15.5071 17.3369C15.6393 17.3016 15.7573 17.2269 15.8451 17.1229C16.2462 16.6467 16.6001 16.2881 16.944 16.0659C17.288 15.8436 17.614 15.7355 18.0911 15.7436C18.6294 15.7526 19.0916 15.8296 19.4492 15.9937C19.8068 16.1577 20.0779 16.39 20.3034 16.8354C20.3487 16.9251 20.414 17.0034 20.4944 17.0644C20.5749 17.1253 20.6683 17.1673 20.7676 17.1872C20.8668 17.2071 20.9694 17.2043 21.0674 17.1791C21.1654 17.1539 21.2564 17.1069 21.3333 17.0417C21.739 16.6975 22.0547 16.3812 22.3633 16.1703C22.82 15.8589 23.4277 15.7075 24.0378 15.7178Z" fill="currentColor" />
</svg>
