<svg width="40" height="40" viewBox="0 0 40 40" fill="none" xmlns="http://www.w3.org/2000/svg">
<path
d="M12.0694 9.37845C15.2795 11.7781 18.7324 16.6436 20.0001 19.2547C21.2679 16.6438 24.7206 11.7781 27.9308 9.37845C30.2471 7.64696 34 6.30722 34 10.5703C34 11.4217 33.5098 17.7225 33.2222 18.7454C32.2228 22.3018 28.5808 23.2088 25.3412 22.6598C31.004 23.6195 32.4445 26.7982 29.3335 29.9769C23.425 36.0139 20.8413 28.4622 20.179 26.5272C20.0576 26.1725 20.0008 26.0065 20 26.1476C19.9992 26.0065 19.9424 26.1725 19.821 26.5272C19.159 28.4622 16.5753 36.0141 10.6665 29.9769C7.55544 26.7982 8.99593 23.6193 14.6588 22.6598C11.4191 23.2088 7.77707 22.3018 6.77777 18.7454C6.49023 17.7224 6 11.4216 6 10.5703C6 6.30722 9.75304 7.64696 12.0692 9.37845H12.0694Z"
fill="currentColor" />
</svg>

