
<svg xmlns="http://www.w3.org/2000/svg" width="40" height="40" viewBox="0 0 40 40" fill="none">
  <path
    d="M12.3561 32.9994V15.4566H6.3538V32.9994H12.3567H12.3561ZM9.3562 13.0619C11.4489 13.0619 12.7517 11.7148 12.7517 10.0313C12.7126 8.30948 11.4489 7 9.396 7C7.3417 7 6 8.30948 6 10.0312C6 11.7146 7.30237 13.0617 9.31687 13.0617H9.35573L9.3562 13.0619ZM15.6785 32.9994H21.6803V23.2038C21.6803 22.6802 21.7195 22.1552 21.878 21.7812C22.3117 20.7332 23.2993 19.6484 24.9578 19.6484C27.1292 19.6484 27.9983 21.257 27.9983 23.6155V32.9994H34V22.9409C34 17.5527 31.0393 15.0453 27.0903 15.0453C23.8527 15.0453 22.4308 16.8032 21.6408 18.0005H21.6808V15.4572H15.6788C15.7571 17.1029 15.6783 33 15.6783 33L15.6785 32.9994Z"
    fill="currentColor" />
</svg>
