<svg width="40" height="40" viewBox="0 0 40 40" fill="none" xmlns="http://www.w3.org/2000/svg">
<path
d="M19.9671 5.11108C17.9247 5.13286 16.102 5.25261 14.4988 5.47035C12.72 5.70986 11.3145 6.06913 10.2824 6.54815L9.82118 6.80943C9.4698 7.02717 9.11843 7.29934 8.76706 7.62595C8.28392 8.08319 7.86667 8.59488 7.51529 9.16099C7.05412 9.87952 6.70275 10.6743 6.46118 11.5452C6.15373 12.5686 6 13.6899 6 14.9092V16.1177C6 17.7943 6.01098 19.0898 6.03294 20.0043C6.09882 22.4647 6.29647 24.5115 6.62588 26.1445C7.04314 28.213 7.72392 29.8896 8.66824 31.1742C9.76627 32.633 11.2376 33.602 13.0824 34.081C15.4761 34.7124 17.782 34.9737 20 34.8648C21.0102 34.7995 21.9765 34.6689 22.8988 34.4729C23.5576 34.3205 24.1616 34.1354 24.7106 33.9177L25.3365 33.6564L25.2047 31.2069L24.48 31.4028C23.8651 31.5335 23.2392 31.6423 22.6024 31.7294C21.702 31.8601 20.8455 31.9036 20.0329 31.8601C18.869 31.8383 17.9906 31.7621 17.3976 31.6315C16.4533 31.4573 15.7176 31.1307 15.1906 30.6516C14.5537 30.1073 14.1694 29.3234 14.0376 28.3001C13.9937 27.9952 13.9718 27.6795 13.9718 27.3529L14.7953 27.5489C15.4761 27.6795 16.1898 27.7884 16.9365 27.8755C17.9906 28.0279 19.0118 28.1259 20 28.1694C20.9224 28.213 21.9325 28.1912 23.0306 28.1041C23.7333 28.0606 24.6996 27.9626 25.9294 27.8102C27.1592 27.6578 28.3341 27.3311 29.4541 26.8304C30.5302 26.3296 31.4251 25.7362 32.1388 25.0504C32.8525 24.3645 33.2753 23.6732 33.4071 22.9764C33.6047 21.9966 33.7475 20.8099 33.8353 19.4164C33.9231 18.4148 33.978 17.3588 34 16.2483V14.9092C34 13.6899 33.8463 12.5686 33.5388 11.5452C33.2973 10.6743 32.9459 9.87952 32.4847 9.16099C32.1333 8.59488 31.7161 8.08319 31.2329 7.62595C30.9035 7.29934 30.5522 7.02717 30.1788 6.80943C29.9153 6.63524 29.7616 6.54815 29.7176 6.54815C28.7075 6.06913 27.3129 5.70986 25.5341 5.47035C23.909 5.25261 22.0863 5.13286 20.0659 5.11108H19.9671ZM15.6188 10.1735C17.222 10.1735 18.4188 10.7831 19.2094 12.0025L20 13.2762L20.7906 12.0025C21.5812 10.7831 22.778 10.1735 24.3812 10.1735C25.7647 10.1735 26.8737 10.6416 27.7082 11.5779C28.5427 12.5141 28.96 13.7879 28.96 15.3992V23.205H25.8306V15.6278C25.8306 14.0165 25.1608 13.2109 23.8212 13.2109C22.3059 13.2109 21.5482 14.1689 21.5482 16.085V20.2329H18.4518V16.085C18.4518 14.1689 17.6941 13.2109 16.1788 13.2109C14.8392 13.2109 14.1694 14.0165 14.1694 15.6278V23.205H11.04V15.3992C11.04 13.7879 11.4573 12.5141 12.2918 11.5779C13.1263 10.6416 14.2353 10.1735 15.6188 10.1735Z"
fill="currentColor" />
</svg>
